<svg width="64" height="64" viewBox="0 0 64 64" fill="none" xmlns="http://www.w3.org/2000/svg">
<path d="M21.4952 25.3814C29.8748 21.3738 36.4326 14.5731 40.1973 6.07211C37.7685 3.52182 34.611 1.70019 31.2106 0.607211L29.389 0C29.2675 0.242884 29.1461 0.607225 29.1461 0.85011C26.2315 9.10817 20.2808 15.7875 12.2657 19.5522C6.67932 22.2239 2.55028 27.0816 0.607211 32.9108L0 34.7324C0.242884 34.8539 0.607216 34.9753 0.8501 34.9753C3.1575 35.8254 5.4649 36.9184 7.65086 38.2543C10.6869 32.7894 15.5446 28.1746 21.4952 25.3814Z" fill="#1263AA"/>
<path d="M56.7131 25.8672C52.2197 32.6679 46.0262 38.1328 38.3753 41.7761C32.1818 44.6907 27.4455 50.1556 25.2596 56.7135L24.6523 58.778C26.9597 60.8425 29.7529 62.4213 32.789 63.3928L34.6106 64C34.732 63.7571 34.8535 63.3928 34.8535 63.1499C37.7681 54.8919 43.7188 48.2126 51.7339 44.4478C57.3203 41.7761 61.5707 36.9184 63.3924 31.0892L63.9996 29.2676C61.4493 28.5389 59.0205 27.3245 56.7131 25.8672Z" fill="#E94C55"/>
<path d="M19.7949 52.4633C22.8309 45.1767 28.4173 39.2261 35.5824 35.8257C42.1402 32.6682 47.6051 27.8105 51.3698 21.8598C48.5767 19.1881 46.2693 16.1521 44.5691 12.5088C40.0757 20.7669 33.0321 27.4462 24.4097 31.5752C19.4306 33.8826 15.423 37.8902 12.9941 42.7479C15.6659 45.2982 17.8518 48.4556 19.552 51.9775C19.552 51.9775 19.6735 52.2204 19.7949 52.4633Z" fill="#FEDC66"/>
</svg>
